<?xml version="1.0" encoding="UTF-8"?>
<svg id="uuid-3f977fa0-af45-4958-9aea-3ce7147020af" data-name="Слой 1" xmlns="http://www.w3.org/2000/svg" viewBox="0 0 90.09 51.02">
  <defs>
    <style>
      .uuid-2d5271b1-20e5-4308-ac33-7c9b363eba83 {
        fill: none;
        stroke: #000;
        stroke-miterlimit: 10;
        stroke-width: .5px;
      }

      .uuid-fa33b18a-821b-4ea5-96ba-554ab6d62a26 {
        fill: #1660a4;
      }

      .uuid-fa33b18a-821b-4ea5-96ba-554ab6d62a26, .uuid-b0d5bc7a-e024-496c-8a7d-3b0f339fd530 {
        fill-rule: evenodd;
      }

      .uuid-b0d5bc7a-e024-496c-8a7d-3b0f339fd530 {
        fill: #22352f;
      }
    </style>
  </defs>
  <g>
    <path class="uuid-fa33b18a-821b-4ea5-96ba-554ab6d62a26" d="M70.08,0c1.56,0,2.85,1.26,2.85,2.85,0,1.12-.61,2.07-1.49,2.55l-4.31,2.34.07-4.89h0c0-1.6,1.29-2.85,2.89-2.85h0Z"/>
    <path class="uuid-b0d5bc7a-e024-496c-8a7d-3b0f339fd530" d="M72.39,23.78c0,.2-.03.37-.14.44-.07.07-.24.1-.54.1h-3.12c-.2,0-.37-.03-.48-.1-.1-.07-.14-.24-.14-.44v-14.1c0-.2.03-.37.14-.44.14-.07,3.19-.85,3.6-.95.31,0,.48.03.54.1.1.07.14.24.14.44v14.95ZM54.29,16.2c0,1.56.27,2.68.88,3.33.61.65,1.43.99,2.48.99.24,0,.65-.03,1.15-.1.51-.03.98-.14,1.49-.31v-8.05c-.41-.14-.85-.24-1.29-.27-.44-.07-.78-.07-1.09-.07-.54,0-1.05.07-1.49.24-.48.17-.85.41-1.15.75-.34.37-.58.82-.75,1.39-.17.58-.24,1.26-.24,2.11h0ZM64.75,22.66c0,1.46-.2,2.68-.58,3.7-.37.99-.92,1.83-1.63,2.51-.75.68-1.63,1.19-2.68,1.6-1.05.37-2.27.65-3.63.85-.24.03-.37.03-.44-.03-.1-.03-.17-.17-.2-.37l-.41-2.92c-.03-.24,0-.37.07-.41.07-.07.17-.1.34-.14.58-.1,1.15-.24,1.7-.37.58-.14,1.05-.34,1.49-.61.44-.24.78-.58,1.09-.95.27-.41.41-.92.41-1.49v-.17c-.54.14-1.12.27-1.73.34-.61.07-1.22.1-1.83.1-1.22,0-2.27-.2-3.19-.58-.88-.37-1.6-.92-2.17-1.63-.58-.71-.98-1.56-1.26-2.51-.27-.99-.41-2.07-.41-3.26s.14-2.28.48-3.3c.31-1.02.78-1.9,1.43-2.65.68-.75,1.49-1.32,2.51-1.77.98-.44,2.21-.65,3.6-.65,1.12,0,2.21.1,3.36.27,1.12.17,2.14.48,3.09.88.27.14.44.31.51.41.07.14.1.34.1.54v12.6ZM43.63,16.31c0-.68-.03-1.32-.14-1.87-.1-.58-.27-1.05-.51-1.46-.27-.41-.58-.75-.95-.99-.41-.24-.88-.34-1.46-.34-1.05,0-1.87.41-2.38,1.22-.51.85-.78,1.94-.78,3.36,0,1.53.24,2.68.71,3.46.48.82,1.26,1.19,2.38,1.19.58,0,1.05-.1,1.43-.34.41-.24.75-.58.98-.99.27-.41.44-.88.54-1.46.14-.54.17-1.12.17-1.8h0ZM48.25,16.24c0,2.68-.65,4.76-1.94,6.22-1.26,1.46-3.23,2.21-5.84,2.21s-4.58-.75-5.81-2.21c-1.22-1.46-1.83-3.53-1.83-6.15,0-1.32.17-2.48.54-3.53.34-1.05.85-1.94,1.53-2.65.65-.71,1.46-1.26,2.41-1.66.95-.37,2-.58,3.23-.58,2.55,0,4.48.75,5.77,2.24,1.29,1.46,1.94,3.5,1.94,6.11h0ZM26.82,16.27c0-1.56-.31-2.72-.88-3.46-.61-.75-1.43-1.12-2.48-1.12-.27,0-.65.03-1.15.07-.51.07-1.02.17-1.49.31v8.49c.41.14.81.2,1.26.27.44.03.81.03,1.12.03,1.12,0,2-.34,2.65-1.02.65-.71.98-1.9.98-3.57h0ZM79.62,42.87c0,1.63.31,2.79.95,3.43.65.65,1.53.99,2.68.99.27,0,.65-.03,1.15-.1.48-.07.85-.14,1.19-.27v-8.53c-.51-.1-.98-.2-1.39-.24-.41-.03-.78-.07-1.12-.07-1.02,0-1.87.37-2.51,1.15-.65.75-.95,1.97-.95,3.63h0ZM75,42.84c0-1.15.14-2.24.44-3.3.27-1.02.71-1.94,1.29-2.72.61-.78,1.36-1.39,2.31-1.87.92-.44,2.04-.68,3.33-.68.51,0,1.05.03,1.53.07.51.03,1.09.14,1.7.27v-5.61c0-.24.03-.41.14-.48.1-.07.27-.14.54-.14h3.12c.2,0,.37.03.48.1.14.1.17.27.17.51v19.5c0,.24,0,.48-.03.68-.03.24-.2.44-.48.61-.27.2-.65.34-1.09.48-.44.14-.92.27-1.46.37s-1.09.17-1.6.2c-.54.07-1.02.1-1.49.14-.48.03-.85.03-1.15.03-1.49,0-2.72-.2-3.7-.61-.98-.41-1.77-.95-2.38-1.7-.61-.71-1.02-1.6-1.29-2.58-.24-1.02-.37-2.11-.37-3.3h0ZM64.85,37.94h-.85c-.37.03-.78.07-1.22.14v12.06c0,.24-.03.37-.1.44-.07.07-.24.14-.54.14h-3.12c-.24,0-.41-.07-.51-.14-.1-.07-.14-.2-.14-.44v-13.08c0-.71.1-1.26.37-1.63.24-.41.75-.68,1.53-.85.2-.03.48-.07.85-.1.37-.03.78-.07,1.22-.1.41-.03.85-.07,1.26-.07.41-.03.78-.03,1.09-.03,1.43,0,2.65.14,3.7.41,1.02.31,1.9.75,2.58,1.36.68.65,1.19,1.46,1.53,2.45.34,1.02.48,2.24.48,3.7v7.95c0,.24-.03.37-.1.44s-.24.14-.51.14h-3.19c-.24,0-.37-.07-.48-.14s-.17-.2-.17-.44v-8.22c0-.68-.03-1.26-.17-1.77-.1-.48-.31-.88-.58-1.22-.27-.34-.65-.58-1.12-.75s-1.09-.24-1.8-.24h0ZM51.27,43.45h-2.41c-.27,0-.58,0-.92.03-.34.07-.61.14-.92.31-.27.14-.48.37-.68.65-.17.31-.27.68-.27,1.15,0,.71.24,1.22.71,1.49.48.31,1.12.44,1.94.44h.51c.2-.03.41-.03.65-.07.24-.03.48-.07.71-.14.24-.03.48-.1.68-.2v-3.67ZM55.72,48.71c0,.27-.03.48-.1.68-.07.17-.24.34-.54.51-.44.24-.95.41-1.49.54-.54.17-1.09.27-1.66.34-.54.1-1.12.14-1.7.2-.54.03-1.09.03-1.6.03-1.39,0-2.55-.1-3.43-.37-.92-.27-1.63-.65-2.21-1.09-.54-.48-.92-1.02-1.15-1.63-.2-.61-.34-1.29-.34-2,0-.78.14-1.53.41-2.17.27-.65.65-1.22,1.19-1.73.54-.48,1.19-.85,2-1.12.81-.31,1.77-.44,2.85-.44h3.36v-.48c0-.27-.03-.54-.1-.82-.07-.27-.17-.51-.37-.68-.2-.2-.48-.37-.81-.48-.34-.14-.81-.2-1.36-.2-.31,0-.68.03-1.05.07-.37,0-.78.07-1.15.1-.37.07-.78.1-1.12.2-.37.07-.71.14-.98.2s-.44.07-.54,0-.17-.17-.24-.37l-.48-2.14c-.07-.24-.07-.41,0-.48.03-.1.14-.17.31-.24.92-.34,1.87-.58,2.89-.71,1.02-.14,2-.2,3.02-.2,2.21,0,3.84.48,4.86,1.43,1.05.95,1.56,2.34,1.56,4.18v8.87ZM41.08,49.87c.03.24.03.37-.03.44-.03.07-.2.17-.41.27-.44.17-.95.27-1.6.34-.61.07-1.15.1-1.63.1-.61,0-1.15-.07-1.63-.17-.48-.14-.88-.37-1.19-.68-.34-.31-.58-.75-.75-1.29-.17-.58-.27-1.26-.27-2.11v-17.83c0-.27.07-.44.17-.48.1-.07.27-.1.51-.1h3.12c.2,0,.37.03.48.14.14.07.17.2.17.44v16.92c0,.51.07.88.24,1.09.14.24.44.34.92.34.14,0,.34,0,.58-.03.2-.03.41-.03.54-.07.17,0,.31,0,.37.07.07.03.14.14.14.31l.27,2.31ZM26.28,43.45h-2.41c-.31,0-.61,0-.92.03-.34.07-.65.14-.92.31-.27.14-.48.37-.68.65-.17.31-.27.68-.27,1.15,0,.71.24,1.22.71,1.49.48.31,1.12.44,1.94.44h.51c.2-.03.41-.03.65-.07.24-.03.48-.07.71-.14.24-.03.48-.1.68-.2v-3.67ZM30.73,48.71c0,.27-.03.48-.1.68-.07.17-.24.34-.54.51-.48.24-.95.41-1.49.54-.54.17-1.09.27-1.66.34-.54.1-1.12.14-1.7.2-.54.03-1.09.03-1.6.03-1.39,0-2.55-.1-3.43-.37-.92-.27-1.66-.65-2.21-1.09-.54-.48-.92-1.02-1.15-1.63-.2-.61-.34-1.29-.34-2,0-.78.14-1.53.41-2.17.27-.65.65-1.22,1.19-1.73.54-.48,1.19-.85,2-1.12.81-.31,1.77-.44,2.85-.44h3.36v-.48c0-.27-.03-.54-.1-.82s-.17-.51-.37-.68c-.2-.2-.48-.37-.81-.48-.34-.14-.81-.2-1.36-.2-.31,0-.68.03-1.05.07-.37,0-.78.07-1.15.1-.41.07-.78.1-1.12.2-.37.07-.71.14-.98.2s-.44.07-.54,0c-.1-.07-.17-.17-.24-.37l-.48-2.14c-.07-.24-.07-.41,0-.48.03-.1.14-.17.31-.24.92-.34,1.87-.58,2.89-.71s2-.2,2.99-.2c2.24,0,3.87.48,4.89,1.43,1.05.95,1.56,2.34,1.56,4.18v8.87ZM10.49,42.63c0-1.53-.31-2.68-.88-3.43-.61-.78-1.43-1.15-2.48-1.15-.27,0-.65.03-1.15.1-.51.03-1.02.14-1.49.31v8.49c.41.14.81.2,1.26.24.48.03.81.07,1.12.07,1.12,0,2-.34,2.65-1.05.65-.68.98-1.87.98-3.57h0ZM15.08,42.56c0,1.15-.14,2.28-.44,3.3-.27,1.02-.75,1.94-1.39,2.68-.65.78-1.46,1.36-2.48,1.83-1.02.44-2.24.65-3.67.65-1.09,0-2.24-.07-3.4-.27-1.15-.17-2.21-.48-3.12-.92-.27-.1-.41-.2-.48-.34-.07-.17-.1-.34-.1-.58v-19.94c0-.24.07-.41.17-.48.1-.07.27-.14.51-.14h3.16c.2,0,.37.03.48.14.1.07.17.24.17.48v5.74c.51-.14,1.09-.27,1.73-.34.61-.1,1.26-.14,1.87-.14,1.22,0,2.31.2,3.19.65.88.41,1.6,1.02,2.17,1.77.58.71.98,1.6,1.26,2.62.27,1.02.37,2.11.37,3.3h0ZM31.41,16.17c0,1.19-.14,2.28-.44,3.3-.27,1.05-.75,1.94-1.39,2.72-.65.75-1.46,1.36-2.48,1.8-1.02.44-2.24.68-3.67.68-1.12,0-2.24-.1-3.4-.27-1.15-.2-2.21-.51-3.16-.92-.24-.1-.37-.24-.44-.37s-.1-.34-.1-.54V2.62c0-.24.07-.41.17-.51.1-.07.27-.1.51-.1h3.16c.2,0,.37.03.48.1.1.07.17.24.17.51v5.74c.51-.17,1.09-.31,1.73-.37.61-.07,1.26-.14,1.87-.14,1.22,0,2.27.24,3.19.65.88.44,1.6,1.02,2.17,1.77s.98,1.63,1.26,2.65c.24,1.02.37,2.11.37,3.26h0Z"/>
    <path class="uuid-fa33b18a-821b-4ea5-96ba-554ab6d62a26" d="M62.71,0c-1.6,0-2.89,1.26-2.89,2.85,0,1.12.61,2.07,1.53,2.55l4.31,2.34-.07-4.89h0c0-1.6-1.29-2.85-2.89-2.85h0Z"/>
  </g>
  <g>
    <circle class="uuid-2d5271b1-20e5-4308-ac33-7c9b363eba83" cx="85.35" cy="17.28" r="4.5"/>
    <path d="M86.25,17.41c.13.06.22.14.27.24.05.1.1.22.13.36l.29,1.14s0,.05,0,.08c-.01.03-.04.05-.08.05h-.6s-.09,0-.13-.01-.08-.04-.1-.1l-.25-1.01c-.05-.19-.12-.32-.22-.39-.1-.07-.23-.11-.4-.11h-.55v1.5c0,.05,0,.09-.02.1-.02.01-.05.02-.11.02h-.61s-.08,0-.1-.03-.03-.05-.03-.09v-3.53c0-.11.02-.2.07-.26.05-.06.14-.09.27-.09h1.4c.41,0,.73.1.96.31.23.21.34.49.34.84,0,.19-.05.38-.14.55-.09.17-.22.3-.39.39v.03ZM85.89,16.49s0-.1-.02-.15c-.01-.05-.04-.1-.08-.15-.04-.04-.09-.08-.15-.11-.07-.03-.15-.04-.25-.04h-.77v.91h.76c.17,0,.29-.04.38-.13.09-.08.13-.2.13-.33Z"/>
  </g>
</svg>